<svg id="Camada_1" data-name="Camada 1" xmlns="http://www.w3.org/2000/svg" viewBox="0 0 1152 1152"><defs><style>.cls-1{fill:#12486f;}.cls-2{fill:#027f9f;}.cls-3{fill:#1f94c0;}</style></defs><rect class="cls-1" x="404.62" y="427.71" width="130.53" height="96.64" transform="translate(474.23 -192.83) rotate(45)"/><rect class="cls-2" x="498.47" y="162.86" width="139.28" height="139.32" transform="translate(330.82 -333.61) rotate(45)"/><path class="cls-3" d="M566.87,470.18,374.76,274.38s-11.3-11.31-8-21c-37.6,11.72-77.85,66.16-48.63,174.9,22.3,83,91.35,112.93,121.91,140.38-53.53-5.49-87.7-21.3-109.6-35.71-10-6.57-26.68-19-34.48-13.55-8.82,6.12-1,31.38,0,34.48,8.19,26.33,27.09,39.41,27.09,41.87,0,1.44-42.56-20.47-72.65-66.49a209.89,209.89,0,0,1-32-89.9c-10-87.23,54.18-150.55,61.57-157.62a202.41,202.41,0,0,1,72.25-44.18c2.64,1.77-22.75-20.89-25.45-60.49-2.57-37.68,17.21-64,22.16-70.2-2.85,7.28-6.51,19.89-3.69,34.48,2.08,10.75,6.91,21.12,17.24,34.48,9.44,12.22,23,25.94,41.18,43.67,13.59-3.67,29,11.75,29,11.75L566.87,361.09"/><path class="cls-1" d="M206.21,344.62c13-46.77,38.09-93.17,70-136.74l8-10.87-9.2,9.64c-21.1,22.1-100.15,110.1-93.59,231.51C188,559.94,278.36,671.51,374.76,710.31c39.58,15.92,70.7,15.77,110.83,48,50,40.16,71.12,96.16,81.28,134.46V819.9c-20.94-167.47-49.26-172.4-105.91-218-13.24-10.65-48-18.47-110.82-41.87-25.05-9.33-37.51-27.22-41.87-23.4-5.36,4.7,5.07,35.22,28.32,51.72C355.7,602,370.34,596.76,387.08,613c10.34,10.05,27,27.72,23.4,32-9.79,11.67-145.23-33.82-195.8-145.31C192.05,449.84,191.61,397,206.21,344.62Z"/><rect class="cls-1" x="597.58" y="427.71" width="130.53" height="96.64" transform="translate(1468.16 343.93) rotate(135)"/><path class="cls-3" d="M565.87,470.18,758,274.38s11.31-11.31,8-21c37.59,11.72,77.85,66.16,48.63,174.9-22.3,83-91.35,112.93-121.91,140.38,53.53-5.49,87.7-21.3,109.59-35.71,10-6.57,26.69-19,34.48-13.55,8.83,6.12,1,31.38,0,34.48-8.19,26.33-27.09,39.41-27.09,41.87,0,1.44,42.56-20.47,72.66-66.49a209.76,209.76,0,0,0,32-89.9c10-87.23-54.17-150.55-61.57-157.62a202.38,202.38,0,0,0-72.24-44.18c-2.64,1.77,22.75-20.89,25.45-60.49,2.57-37.68-17.21-64-22.17-70.2,2.86,7.28,6.52,19.89,3.7,34.48-2.08,10.75-6.91,21.12-17.24,34.48-9.44,12.22-23,25.94-41.19,43.67-13.58-3.67-29,11.75-29,11.75L565.87,361.09"/><path class="cls-1" d="M926.53,344.62c-13-46.77-38.09-93.17-70-136.74l-8-10.87,9.21,9.64c21.1,22.1,100.15,110.1,93.59,231.51C944.73,559.94,854.38,671.51,758,710.31c-39.57,15.92-70.69,15.77-110.83,48-50,40.16-71.11,96.16-81.27,134.46V819.9c20.93-167.47,49.26-172.4,105.9-218,13.25-10.65,48-18.47,110.83-41.87,25-9.33,37.51-27.22,41.87-23.4,5.36,4.7-5.07,35.22-28.32,51.72C777,602,762.4,596.76,745.66,613c-10.34,10.05-27,27.72-23.4,32,9.79,11.67,145.22-33.82,195.8-145.31C940.69,449.84,941.13,397,926.53,344.62Z"/><path class="cls-1" d="M567,626.43c11.82-20.46,69.7-58.35,69.7-58.35l-69.83-68-69.58,68s62,43.26,68.58,56.72"/><path class="cls-1" d="M212.71,947.11l-4.42,2.62a10.16,10.16,0,0,0-1.72-2.27,5.14,5.14,0,0,0-3.65-1.27,5.51,5.51,0,0,0-3.86,1.35,4.09,4.09,0,0,0-1.43,3.14,3.52,3.52,0,0,0,1.72,3,11.19,11.19,0,0,0,2.22,1.25l3.6,1.45a15.19,15.19,0,0,1,6.46,4.39,10.05,10.05,0,0,1,2,6.25A11.27,11.27,0,0,1,202,978.54a10.8,10.8,0,0,1-9.44-4.81,13.61,13.61,0,0,1-2.09-5.85l5.5-1.22a11.4,11.4,0,0,0,1,4,5,5,0,0,0,1.91,1.88,6.29,6.29,0,0,0,3.3.9,5.58,5.58,0,0,0,4.45-2,6,6,0,0,0,1.48-4.07,5.41,5.41,0,0,0-2.51-4.74,18,18,0,0,0-2.65-1.4l-3.49-1.48q-7.41-3.12-7.41-9.16a8.59,8.59,0,0,1,4.13-7.56,11.91,11.91,0,0,1,6.72-2,10.31,10.31,0,0,1,7,2.49A13.92,13.92,0,0,1,212.71,947.11Z"/><path class="cls-1" d="M225.65,941.74v36.11H220.2V941.74Z"/><path class="cls-1" d="M254.75,947.11l-4.42,2.62a10.16,10.16,0,0,0-1.72-2.27,5.15,5.15,0,0,0-3.65-1.27,5.51,5.51,0,0,0-3.86,1.35,4.09,4.09,0,0,0-1.43,3.14,3.52,3.52,0,0,0,1.72,3,11.19,11.19,0,0,0,2.22,1.25l3.6,1.45a15.19,15.19,0,0,1,6.46,4.39,10.05,10.05,0,0,1,2,6.25,11.27,11.27,0,0,1-11.62,11.53,10.8,10.8,0,0,1-9.44-4.81,13.61,13.61,0,0,1-2.09-5.85l5.5-1.22a11.4,11.4,0,0,0,1,4,5,5,0,0,0,1.91,1.88,6.29,6.29,0,0,0,3.3.9,5.58,5.58,0,0,0,4.45-2,6,6,0,0,0,1.48-4.07,5.41,5.41,0,0,0-2.51-4.74,18,18,0,0,0-2.65-1.4l-3.49-1.48q-7.41-3.12-7.41-9.16a8.59,8.59,0,0,1,4.13-7.56,11.91,11.91,0,0,1,6.72-2,10.31,10.31,0,0,1,7,2.49A14.14,14.14,0,0,1,254.75,947.11Z"/><path class="cls-1" d="M272.71,946.87v31h-5.45v-31H259v-5.13h22v5.13Z"/><path class="cls-1" d="M305.84,946.87h-14.5v8.66h14.05v5.13H291.34v12.06h14.5v5.13H285.89V941.74h19.95Z"/><path class="cls-1" d="M311.71,977.85,319.3,939l12.41,28.07L344.54,939l6.83,38.83h-5.58l-3.47-21.8-10.69,23.5L321.21,956l-3.86,21.82Z"/><path class="cls-1" d="M380.23,969.07H364.78l-4,8.78h-5.87l17.88-38.41L390,977.85h-6ZM378,963.94l-5.37-12.28-5.61,12.28Z"/><path class="cls-1" d="M413.52,941.74v36.11h-5.45V941.74Z"/><path class="cls-1" d="M422.19,977.85V939.28l26.33,27.54V941.74H454v38.34l-26.33-27.52v25.29Z"/><path class="cls-1" d="M472.59,946.87v31h-5.45v-31h-8.3v-5.13h22v5.13Z"/><path class="cls-1" d="M505.72,946.87h-14.5v8.66h14v5.13h-14v12.06h14.5v5.13h-20V941.74h20Z"/><path class="cls-1" d="M531.43,959h14.92c0,2-.06,3.63-.18,4.79a15.82,15.82,0,0,1-4.92,10.06,16.52,16.52,0,0,1-11.8,4.65,17.88,17.88,0,0,1-8.63-2.19,18.77,18.77,0,0,1,.45-33.23,18.91,18.91,0,0,1,8.68-2.07,17.81,17.81,0,0,1,10.82,3.5,25.85,25.85,0,0,1,4,3.83l-3.89,3.73q-4.5-5.93-10.85-5.92a13.36,13.36,0,0,0-13.49,13.67,12.75,12.75,0,0,0,4.31,9.93,13,13,0,0,0,8.78,3.62,10.79,10.79,0,0,0,7.52-3,9.57,9.57,0,0,0,3.3-6.27h-9Z"/><path class="cls-1" d="M565.46,962.48l11.19,15.37H570l-10.32-14.78h-1v14.78h-5.45V941.74h6.38a24.27,24.27,0,0,1,6.4.66,9.78,9.78,0,0,1,5.85,4.31,10.52,10.52,0,0,1,1.59,5.64,10.8,10.8,0,0,1-1.38,5.32A9.38,9.38,0,0,1,565.46,962.48Zm-6.78-4.15h1.75a9.28,9.28,0,0,0,5.42-1.3,5.26,5.26,0,0,0,2.28-4.6,4.93,4.93,0,0,0-2.12-4.31,9.53,9.53,0,0,0-5.4-1.25h-1.93Z"/><path class="cls-1" d="M603.26,969.07H587.81l-4,8.78h-5.87l17.88-38.41L613,977.85h-6Zm-2.19-5.13-5.37-12.28-5.61,12.28Z"/><path class="cls-1" d="M617.55,977.85V941.74h7.59a27.13,27.13,0,0,1,9.13,1.24,16.55,16.55,0,0,1,9,7.68,18.55,18.55,0,0,1,2.22,9.12q0,9.4-7.22,14.61a16.69,16.69,0,0,1-7.17,3.07,39,39,0,0,1-6,.39Zm5.45-5.13h2.46a19.11,19.11,0,0,0,6.64-1,11.86,11.86,0,0,0,6.09-5.16,13.19,13.19,0,0,0,1.77-6.8,13.35,13.35,0,0,0-2.41-7.86,11.31,11.31,0,0,0-6.51-4.47,21.76,21.76,0,0,0-5.58-.61H623Z"/><path class="cls-1" d="M669.51,941.05a18.92,18.92,0,0,1,18.78,18.79,18.22,18.22,0,0,1-2.51,9.31A18.48,18.48,0,0,1,679,976a19,19,0,0,1-9.73,2.59,18.41,18.41,0,0,1-9-2.33,18.15,18.15,0,0,1-7.7-7.67,18.94,18.94,0,0,1-2-8.89,17.68,17.68,0,0,1,5.77-13.25,18.53,18.53,0,0,1,7-4.29A19.23,19.23,0,0,1,669.51,941.05Zm0,5.14A12.63,12.63,0,0,0,659.19,951a13.41,13.41,0,0,0-3.15,8.76,13.44,13.44,0,0,0,13.26,13.7,13.4,13.4,0,0,0,7-1.91,13,13,0,0,0,5-5.21A14.23,14.23,0,0,0,679,950.1,12.67,12.67,0,0,0,669.46,946.19Z"/><path class="cls-1" d="M708.69,977.85V941.74h7.6a27.11,27.11,0,0,1,9.12,1.24,16.55,16.55,0,0,1,9,7.68,18.55,18.55,0,0,1,2.22,9.12q0,9.4-7.22,14.61a16.69,16.69,0,0,1-7.17,3.07,39,39,0,0,1-6,.39Zm5.45-5.13h2.46a19.07,19.07,0,0,0,6.64-1,11.86,11.86,0,0,0,6.09-5.16,14,14,0,0,0-.64-14.66,11.31,11.31,0,0,0-6.5-4.47,21.9,21.9,0,0,0-5.59-.61h-2.46Z"/><path class="cls-1" d="M763.43,946.87h-14.5v8.66H763v5.13H748.93v12.06h14.5v5.13H743.48V941.74h19.95Z"/><path class="cls-1" d="M802.69,959h14.92c0,2-.06,3.63-.18,4.79a15.82,15.82,0,0,1-4.92,10.06,16.53,16.53,0,0,1-11.8,4.65,17.88,17.88,0,0,1-8.63-2.19,18.77,18.77,0,0,1,.45-33.23,18.91,18.91,0,0,1,8.68-2.07,17.81,17.81,0,0,1,10.82,3.5,25.85,25.85,0,0,1,4,3.83l-3.89,3.73q-4.5-5.93-10.85-5.92a13.36,13.36,0,0,0-13.49,13.67,12.72,12.72,0,0,0,4.31,9.93,13,13,0,0,0,8.78,3.62,10.81,10.81,0,0,0,7.52-3,9.57,9.57,0,0,0,3.3-6.27h-9Z"/><path class="cls-1" d="M844.44,946.87h-14.5v8.66h14v5.13h-14v12.06h14.5v5.13h-20V941.74h20Z"/><path class="cls-1" d="M872,947.11l-4.42,2.62a10.47,10.47,0,0,0-1.72-2.27,5.15,5.15,0,0,0-3.65-1.27,5.49,5.49,0,0,0-3.86,1.35,4.06,4.06,0,0,0-1.43,3.14,3.52,3.52,0,0,0,1.72,3,11.19,11.19,0,0,0,2.22,1.25l3.6,1.45a15.15,15.15,0,0,1,6.45,4.39,10.05,10.05,0,0,1,2,6.25,11.25,11.25,0,0,1-11.61,11.53,10.8,10.8,0,0,1-9.44-4.81,13.48,13.48,0,0,1-2.09-5.85l5.5-1.22a11.4,11.4,0,0,0,1,4,5,5,0,0,0,1.9,1.88,6.35,6.35,0,0,0,3.31.9,5.58,5.58,0,0,0,4.45-2,6,6,0,0,0,1.48-4.07,5.4,5.4,0,0,0-2.52-4.74,17.37,17.37,0,0,0-2.64-1.4l-3.49-1.48q-7.41-3.12-7.41-9.16a8.56,8.56,0,0,1,4.13-7.56,11.91,11.91,0,0,1,6.72-2,10.31,10.31,0,0,1,7,2.49A14.14,14.14,0,0,1,872,947.11Z"/><path class="cls-1" d="M890,946.87v31h-5.45v-31h-8.3v-5.13h22v5.13Z"/><path class="cls-1" d="M922.36,969.07H906.91l-4,8.78H897l17.88-38.41,17.23,38.41h-6Zm-14-31-3.07-2.6a32.79,32.79,0,0,1,2-2.69,5.21,5.21,0,0,1,3.95-1.7,9.53,9.53,0,0,1,4.23,1.25q1.4.71,1.83.9a3,3,0,0,0,1.29.31,2.45,2.45,0,0,0,1.83-1,9,9,0,0,0,1.08-1.53l3,2.49c-1.5,3-3.53,4.49-6.09,4.49a5.9,5.9,0,0,1-2.14-.37c-.5-.19-1.2-.5-2.12-.92a9.14,9.14,0,0,0-3.17-1.09C910.12,935.68,909.25,936.49,908.39,938.12Zm11.77,25.82-5.37-12.28-5.61,12.28Z"/><path class="cls-1" d="M952.17,941.05A18.94,18.94,0,0,1,971,959.84a18.23,18.23,0,0,1-2.52,9.31,18.48,18.48,0,0,1-6.8,6.8,19,19,0,0,1-9.73,2.59,18.47,18.47,0,0,1-9-2.33,18.15,18.15,0,0,1-7.7-7.67,18.94,18.94,0,0,1-2-8.89A17.68,17.68,0,0,1,939,946.4a18.53,18.53,0,0,1,7-4.29A19.23,19.23,0,0,1,952.17,941.05Zm0,5.14A12.64,12.64,0,0,0,941.85,951a13.4,13.4,0,0,0-3.14,8.76,13.07,13.07,0,0,0,4,9.86,12.92,12.92,0,0,0,9.23,3.84,13.4,13.4,0,0,0,7-1.91,12.89,12.89,0,0,0,5-5.21,14.23,14.23,0,0,0-2.27-16.19A12.67,12.67,0,0,0,952.12,946.19Z"/><path class="cls-1" d="M285.19,1042.87l7.59-38.83,12.41,28.07L318,1004l6.83,38.83h-5.59l-3.46-21.8-10.69,23.5-10.42-23.52-3.87,21.82Z"/><path class="cls-1" d="M352.47,1011.89H338v8.65h14v5.14H338v12.06h14.5v5.13h-20v-36.11h20Zm-1.78-14.84-9.52,6.46-2.62-2.17,7.52-7.54Z"/><path class="cls-1" d="M359.61,1042.87v-36.11h7.59a27.13,27.13,0,0,1,9.13,1.24,16.55,16.55,0,0,1,9,7.68,18.55,18.55,0,0,1,2.22,9.12q0,9.4-7.22,14.61a16.69,16.69,0,0,1-7.17,3.07,39,39,0,0,1-6,.39Zm5.45-5.13h2.46a19.11,19.11,0,0,0,6.64-1,11.86,11.86,0,0,0,6.09-5.16,14,14,0,0,0-.64-14.66,11.31,11.31,0,0,0-6.51-4.47,21.76,21.76,0,0,0-5.58-.61h-2.46Z"/><path class="cls-1" d="M399.85,1006.76v36.11H394.4v-36.11Z"/><path class="cls-1" d="M435.22,1008.72v6.45a17.47,17.47,0,0,0-4.31-2.83,14,14,0,0,0-5.45-1.13,12.58,12.58,0,0,0-6.82,1.93,13,13,0,0,0-5,5.58,14.07,14.07,0,0,0-1.41,6.22,13.24,13.24,0,0,0,13.23,13.49,13.35,13.35,0,0,0,6.54-1.72,21.67,21.67,0,0,0,3.22-2.38v6.56a19.51,19.51,0,0,1-9.81,2.67,18.52,18.52,0,0,1-16.67-10.18,18.33,18.33,0,0,1-2-8.39,19.11,19.11,0,0,1,9.42-16.38,19,19,0,0,1,9.66-2.54A18.51,18.51,0,0,1,435.22,1008.72Z"/><path class="cls-1" d="M464,1034.09H448.53l-4,8.78h-5.87l17.88-38.41,17.22,38.41h-5.95Zm-2.19-5.13-5.37-12.28L450.81,1029Z"/><path class="cls-1" d="M511.76,1011.89h-14.5v8.65h14.05v5.14H497.26v12.06h14.5v5.13H491.81v-36.11h19.95Z"/><path class="cls-1" d="M553.64,1034.09H538.19l-4,8.78H528.3l17.88-38.41,17.23,38.41h-6Zm-2.19-5.13-5.37-12.28L540.47,1029Z"/><path class="cls-1" d="M575.84,1011.89v31h-5.45v-31h-8.31v-5.13h22v5.13Z"/><path class="cls-1" d="M609,1011.89H594.47v8.65h14v5.14h-14v12.06H609v5.13H589v-36.11H609Z"/><path class="cls-1" d="M616.11,1042.87V1004.3l26.32,27.54v-25.08h5.45v38.34l-26.32-27.52v25.29Z"/><path class="cls-1" d="M656.56,1042.87v-36.11h7.59a27.13,27.13,0,0,1,9.13,1.24,16.55,16.55,0,0,1,9,7.68,18.55,18.55,0,0,1,2.22,9.12q0,9.4-7.22,14.61a16.69,16.69,0,0,1-7.17,3.07,39.08,39.08,0,0,1-6,.39Zm5.45-5.13h2.46a19.11,19.11,0,0,0,6.64-1,11.86,11.86,0,0,0,6.09-5.16,14,14,0,0,0-.64-14.66,11.31,11.31,0,0,0-6.51-4.47,21.76,21.76,0,0,0-5.58-.61H662Z"/><path class="cls-1" d="M696.8,1006.76v36.11h-5.45v-36.11Z"/><path class="cls-1" d="M704.21,1042.87,711.8,1004l12.41,28.07L737,1004l6.83,38.83h-5.59l-3.46-21.8-10.69,23.5-10.42-23.52-3.87,21.82Z"/><path class="cls-1" d="M771.49,1011.89H757v8.65h14v5.14H757v12.06h14.5v5.13h-20v-36.11h20Z"/><path class="cls-1" d="M778.63,1042.87V1004.3L805,1031.84v-25.08h5.45v38.34l-26.32-27.52v25.29Z"/><path class="cls-1" d="M829,1011.89v31h-5.45v-31h-8.31v-5.13h22v5.13Z"/><path class="cls-1" d="M858,1006.07a18.92,18.92,0,0,1,18.78,18.79,18.22,18.22,0,0,1-2.51,9.31,18.48,18.48,0,0,1-6.8,6.8,19,19,0,0,1-9.73,2.59,18.41,18.41,0,0,1-9-2.33,18.2,18.2,0,0,1-7.7-7.67,18.94,18.94,0,0,1-2-8.89,17.68,17.68,0,0,1,5.77-13.25,18.53,18.53,0,0,1,7-4.29A19.23,19.23,0,0,1,858,1006.07Zm0,5.14a12.63,12.63,0,0,0-10.27,4.76,13.4,13.4,0,0,0-3.15,8.75,13.44,13.44,0,0,0,13.26,13.71,13.4,13.4,0,0,0,7-1.91,13,13,0,0,0,5-5.21,14.23,14.23,0,0,0-2.27-16.19A12.67,12.67,0,0,0,858,1011.21Z"/></svg>